:FULLY-SPECIFIED
:FORCE-ALL-JOINTS-BE-3DOF
:DEGREES
747
root 3.89714 17.8129 14.5273 -162.947 -0.359594 -168.937
lfemur -21.2661 -9.78236 -9.76415
ltibia 18.4816 -0 0
lfoot -10.2048 -7.1546 -0.579181
ltoes 10.8321 -0 0
rfemur -27.0556 -31.7961 -0.465552
rtibia 89.0758 -0 -0
rfoot 21.6566 3.68006 1.89421
rtoes 20.9392 -0 0
lowerback 1.00241 8.27013 1.19799
upperback -2.2005 11.0473 -1.20758
thorax -2.42144 5.47798 -2.2355
lowerneck -7.54131 -7.92139 -1.08216
upperneck -2.37798 -10.587 3.22114
head 0.740002 -5.30242 0.839899
lclavicle -5.06995e-14 -4.01181e-14 -1.62416e-30
lhumerus -64.2157 -9.93329 63.0398
lradius 49.1777 -0 0
lwrist 19.7744 0 0
lhand -22.9166 -3.73637 -0.00303191
lfingers 7.12502 -0 0
lthumb 3.52356 26.2134 -0.00299305
rclavicle -5.06995e-14 -4.01181e-14 -1.62416e-30
rhumerus 37.348 28.2926 -54.9641
rradius 89.4948 -0 0
rwrist -5.2723 0 0
rhand -28.4723 -27.8702 -0.0118802
rfingers 7.12502 -0 0
rthumb -1.84217 -57.8431 -0.0105936
748
root 3.80766 17.7514 14.7538 -162.696 3.27087 -168.723
lfemur -21.237 -9.4108 -10.2388
ltibia 18.0034 -0 0
lfoot -10.6484 -6.64818 -0.650006
ltoes 10.6692 -0 0
rfemur -27.0724 -31.9462 -0.036769
rtibia 85.1117 -0 -0
rfoot 20.766 2.90716 2.14915
rtoes 20.2118 -0 0
lowerback 0.993045 8.32127 1.19497
upperback -2.17459 11.1162 -1.25088
thorax -2.38615 5.51302 -2.28024
lowerneck -7.5034 -7.92944 -1.08563
upperneck -2.44748 -10.5926 3.24703
head 0.71304 -5.30487 0.850214
lclavicle -4.96977e-14 -3.9881e-14 -1.92082e-30
lhumerus -64.8961 -9.37353 64.1316
lradius 49.3474 -0 0
lwrist 19.4899 0 0
lhand -22.8768 -3.74211 -0.00348907
lfingers 7.12502 -0 0
lthumb 3.56203 26.2069 -0.0034429
rclavicle -4.96977e-14 -3.9881e-14 -1.92082e-30
rhumerus 37.0502 29.938 -55.9131
rradius 89.1603 -0 0
rwrist -4.99058 0 0
rhand -28.2888 -27.5418 -0.015219
rfingers 7.12502 -0 0
rthumb -1.66496 -57.5165 -0.0136929
749
root 3.71505 17.6882 14.9823 -162.427 6.96431 -168.488
lfemur -21.234 -9.01282 -10.7038
ltibia 17.5842 -0 0
lfoot -11.0997 -6.11198 -0.718296
ltoes 10.518 -0 0
rfemur -27.0754 -32.0768 0.415259
rtibia 81.1867 -0 -0
rfoot 19.8349 2.09576 2.40079
rtoes 19.433 -0 0
lowerback 0.984015 8.36586 1.18888
upperback -2.14756 11.1763 -1.29696
thorax -2.35 5.54373 -2.32581
lowerneck -7.46311 -7.9354 -1.08845
upperneck -2.51555 -10.5953 3.27516
head 0.686184 -5.30577 0.861296
lclavicle -4.86355e-14 -3.95898e-14 -2.2321e-30
lhumerus -65.5357 -8.81333 65.2374
lradius 49.545 -0 0
lwrist 19.2021 0 0
lhand -22.8355 -3.74971 -0.00395389
lfingers 7.12502 -0 0
lthumb 3.60193 26.1985 -0.00389994
rclavicle -4.86355e-14 -3.95898e-14 -2.2321e-30
rhumerus 36.656 31.6 -56.9158
rradius 88.8199 -0 0
rwrist -4.69891 0 0
rhand -28.1029 -27.2097 -0.019091
rfingers 7.12502 -0 0
rthumb -1.48544 -57.1862 -0.0173051
750
root 3.61973 17.6237 15.2119 -162.138 10.7109 -168.231
lfemur -21.258 -8.58921 -11.1577
ltibia 17.2268 -0 0
lfoot -11.5573 -5.5468 -0.78344
ltoes 10.3795 -0 0
rfemur -27.0639 -32.187 0.889623
rtibia 77.3142 -0 -0
rfoot 18.8648 1.2471 2.64692
rtoes 18.6038 -0 0
lowerback 0.975351 8.40356 1.17965
upperback -2.11945 11.2271 -1.34575
thorax -2.31307 5.56989 -2.37208
lowerneck -7.42049 -7.93919 -1.09061
upperneck -2.58194 -10.5949 3.30552
head 0.65952 -5.30507 0.873132
lclavicle -4.75143e-14 -3.92439e-14 -2.55561e-30
lhumerus -66.1317 -8.2556 66.3551
lradius 49.7707 -0 0
lwrist 18.9116 0 0
lhand -22.7928 -3.75922 -0.00442296
lfingers 7.12502 -0 0
lthumb 3.64318 26.1882 -0.0043608
rclavicle -4.75143e-14 -3.92439e-14 -2.55561e-30
rhumerus 36.1588 33.2718 -57.9772
rradius 88.4744 -0 0
rwrist -4.3979 0 0
rhand -27.9151 -26.8748 -0.023503
rfingers 7.12502 -0 0
rthumb -1.30409 -56.8529 -0.0214378
751
root 3.52215 17.5579 15.4419 -161.825 14.5009 -167.948
lfemur -21.3098 -8.14075 -11.5991
ltibia 16.9344 -0 0
lfoot -12.0201 -4.95347 -0.844855
ltoes 10.2545 -0 0
rfemur -27.0373 -32.276 1.3854
rtibia 73.5076 -0 -0
rfoot 17.8574 0.362474 2.88533
rtoes 17.7252 -0 0
lowerback 0.967091 8.43405 1.16722
upperback -2.09031 11.2682 -1.39721
thorax -2.27544 5.59129 -2.41895
lowerneck -7.37559 -7.94071 -1.09208
upperneck -2.64637 -10.5915 3.33806
head 0.633137 -5.30273 0.885708
lclavicle -4.63357e-14 -3.88426e-14 -2.88881e-30
lhumerus -66.6816 -7.70347 67.4829
lradius 50.0247 -0 0
lwrist 18.6192 0 0
lhand -22.7487 -3.77064 -0.00489271
lfingers 7.12502 -0 0
lthumb 3.6857 26.1759 -0.00482196
rclavicle -4.63357e-14 -3.88426e-14 -2.88881e-30
rhumerus 35.5515 34.946 -59.1029
rradius 88.1246 -0 0
rwrist -4.08817 0 0
rhand -27.726 -26.538 -0.0284504
rfingers 7.12502 -0 0
rthumb -1.12141 -56.5177 -0.0260872
752
root 3.42271 17.4913 15.6715 -161.485 18.3242 -167.636
lfemur -21.3902 -7.66819 -12.0267
ltibia 16.71 -0 0
lfoot -12.487 -4.33282 -0.901988
ltoes 10.1437 -0 0
rfemur -26.9946 -32.343 1.90167
rtibia 69.7803 -0 -0
rfoot 16.8142 -0.556729 3.11385
rtoes 16.798 -0 0
lowerback 0.959273 8.45698 1.15151
upperback -2.06017 11.2991 -1.45126
thorax -2.23719 5.6077 -2.46629
lowerneck -7.32848 -7.93991 -1.09281
upperneck -2.70859 -10.5849 3.37276
head 0.607121 -5.2987 0.899011
lclavicle -4.51013e-14 -3.83853e-14 -3.22898e-30
lhumerus -67.1828 -7.16023 68.6187
lradius 50.3071 -0 0
lwrist 18.3259 0 0
lhand -22.7035 -3.78403 -0.00535941
lfingers 7.12502 -0 0
lthumb 3.7294 26.1617 -0.00527975
rclavicle -4.51013e-14 -3.83853e-14 -3.22898e-30
rhumerus 34.8267 36.6154 -60.2989
rradius 87.7715 -0 0
rwrist -3.77033 0 0
rhand -27.5359 -26.2002 -0.0339165
rfingers 7.12502 -0 0
rthumb -0.937893 -56.1815 -0.0312381
